<svg xmlns="http://www.w3.org/2000/svg" width="20" height="19.649" viewBox="0 0 20 19.649"><defs><style>.a{fill:#72cbcb;}</style></defs><path class="a" d="M26.279,19.055a1.394,1.394,0,0,1,.19-.7,1.938,1.938,0,0,1,.121-.178,9.32,9.32,0,0,0,1.588-5.194,9.785,9.785,0,0,0-9.991-9.606,9.923,9.923,0,0,0-9.8,7.645,9.244,9.244,0,0,0-.213,1.967,9.757,9.757,0,0,0,9.836,9.727,11.846,11.846,0,0,0,2.715-.443c.65-.178,1.294-.414,1.461-.477a1.521,1.521,0,0,1,.535-.1,1.5,1.5,0,0,1,.581.115l3.261,1.156a.778.778,0,0,0,.224.058.458.458,0,0,0,.46-.46.739.739,0,0,0-.029-.155Z" transform="translate(-8.177 -3.375)"/></svg>