<svg xmlns="http://www.w3.org/2000/svg" width="54.165" height="47.963" viewBox="0 0 54.165 47.963"><defs><style>.a{fill:#ba3143;}</style></defs><g transform="translate(0 0)"><circle class="a" cx="3.721" cy="3.721" r="3.721" transform="translate(16.694 11.836)"/><path class="a" d="M50.961,53.253A11.459,11.459,0,0,0,44.552,50.2V31.287a7.441,7.441,0,0,0-2.119-5.168A7.222,7.222,0,0,0,37.264,24H7.287a7.441,7.441,0,0,0-5.168,2.119A7.222,7.222,0,0,0,0,31.287V62.143a7.441,7.441,0,0,0,2.119,5.168A7.222,7.222,0,0,0,7.287,69.43H36.282A10.935,10.935,0,0,0,50.961,53.253ZM2.739,31.287a4.589,4.589,0,0,1,4.548-4.548H37.264a4.589,4.589,0,0,1,4.548,4.548V47.413l-7.649-7.6a1.388,1.388,0,0,0-1.964,0L20.674,51.393l-7.8-7.856a1.388,1.388,0,0,0-1.964,0L2.739,51.806Zm4.5,35.455v-.052a4.535,4.535,0,0,1-3.2-1.344,4.717,4.717,0,0,1-1.292-3.2V55.682l9.2-9.2,7.8,7.8a1.437,1.437,0,0,0,1.964,0L33.233,42.71l7.546,7.6-.465.155a4.8,4.8,0,0,0-.672.207c-.207.052-.413.155-.62.207a1.547,1.547,0,0,0-.413.207,4.8,4.8,0,0,0-.517.258l-.775.465c-.155.1-.258.155-.413.258-.1.052-.155.1-.258.155A6.235,6.235,0,0,0,35.4,53.3a10.934,10.934,0,0,0-3.2,7.753,11.362,11.362,0,0,0,.258,2.274c.052.207.1.362.155.569.155.517.31,1.034.517,1.551V65.5a9.48,9.48,0,0,0,.672,1.24Zm41.709.052a8.176,8.176,0,0,1-11.422.1c-.207-.207-.413-.465-.62-.672-.155-.155-.31-.362-.465-.517a4.908,4.908,0,0,1-.517-.879c-.1-.207-.207-.362-.31-.569a4.366,4.366,0,0,1-.258-.879c-.052-.207-.155-.465-.207-.672a8.554,8.554,0,0,1-.155-1.654,8.3,8.3,0,0,1,2.377-5.789,8.078,8.078,0,0,1,5.789-2.377,8.3,8.3,0,0,1,5.789,2.377,7.991,7.991,0,0,1,2.377,5.789A8.266,8.266,0,0,1,48.945,66.794Z" transform="translate(0 -24)"/><path class="a" d="M298.092,268.948h-3.153V265.8a1.4,1.4,0,1,0-2.791,0v3.153H289a1.4,1.4,0,0,0,0,2.791h3.153v3.153a1.4,1.4,0,1,0,2.791,0v-3.153h3.153a1.4,1.4,0,0,0,0-2.791Z" transform="translate(-250.439 -233.338)"/></g></svg>